<?xml version="1.0" encoding="UTF-8"?>
<svg width="100" height="100" viewBox="0 0 26.42 28.63" xmlns="http://www.w3.org/2000/svg">
  <path fill="#ffffff" d="m16.87,19.82h9.33s0,2.97,0,2.97h-9.46s3.68,3.63,3.68,3.63l-2.11,2.11-3.53-3.55v3.64s-2.96,0-2.96,0v-3.7l-3.6,3.62-2.11-2.14,3.63-3.6H.38s0-2.97,0-2.97h9.13c-3.18-3.17-6.34-6.33-9.5-9.48l2.16-2.15c3.17,3.18,6.37,6.38,9.56,9.58.02-.01.05-.03.07-.04v-.35c0-5.8,0-11.6,0-17.4.87,0,1.74,0,2.6,0,.11,0,.22,0,.37,0,0,5.91,0,11.78,0,17.74l9.54-9.55,2.11,2.1c-3.16,3.16-6.33,6.32-9.55,9.53Z"/>
</svg>
